<svg width="24" height="25" viewBox="0 0 24 25" fill="none" xmlns="http://www.w3.org/2000/svg">
<mask id="mask0_54210_13548" style="mask-type:alpha" maskUnits="userSpaceOnUse" x="0" y="0" width="24" height="25">
<rect y="0.5" width="24" height="24" fill="#D9D9D9"/>
</mask>
<g mask="url(#mask0_54210_13548)">
<path d="M10.8008 12.5L14.7008 16.4C14.8841 16.5833 14.9758 16.8167 14.9758 17.1C14.9758 17.3833 14.8841 17.6167 14.7008 17.8C14.5174 17.9833 14.2841 18.075 14.0008 18.075C13.7174 18.075 13.4841 17.9833 13.3008 17.8L8.70078 13.2C8.60078 13.1 8.52995 12.9917 8.48828 12.875C8.44661 12.7583 8.42578 12.6333 8.42578 12.5C8.42578 12.3667 8.44661 12.2417 8.48828 12.125C8.52995 12.0083 8.60078 11.9 8.70078 11.8L13.3008 7.2C13.4841 7.01667 13.7174 6.925 14.0008 6.925C14.2841 6.925 14.5174 7.01667 14.7008 7.2C14.8841 7.38334 14.9758 7.61667 14.9758 7.9C14.9758 8.18334 14.8841 8.41667 14.7008 8.6L10.8008 12.5Z" fill="#090F1F"/>
</g>
</svg>
