<svg width="10" height="10" viewBox="0 0 10 10" fill="none" xmlns="http://www.w3.org/2000/svg">
<path d="M5.00078 6.4L2.10078 9.3C1.91745 9.48333 1.68411 9.575 1.40078 9.575C1.11745 9.575 0.884115 9.48333 0.700781 9.3C0.517448 9.11666 0.425781 8.88333 0.425781 8.6C0.425781 8.31666 0.517448 8.08333 0.700781 7.9L3.60078 5L0.700781 2.125C0.517448 1.94166 0.425781 1.70833 0.425781 1.425C0.425781 1.14166 0.517448 0.90833 0.700781 0.724997C0.884115 0.541664 1.11745 0.449997 1.40078 0.449997C1.68411 0.449997 1.91745 0.541664 2.10078 0.724997L5.00078 3.625L7.87578 0.724997C8.05912 0.541664 8.29245 0.449997 8.57578 0.449997C8.85912 0.449997 9.09245 0.541664 9.27578 0.724997C9.47578 0.924997 9.57578 1.1625 9.57578 1.4375C9.57578 1.7125 9.47578 1.94166 9.27578 2.125L6.37578 5L9.27578 7.9C9.45912 8.08333 9.55078 8.31666 9.55078 8.6C9.55078 8.88333 9.45912 9.11666 9.27578 9.3C9.07578 9.5 8.83828 9.6 8.56328 9.6C8.28828 9.6 8.05912 9.5 7.87578 9.3L5.00078 6.4Z" fill="#090F1F"/>
</svg>
